<svg width="192" height="64" viewBox="0 0 192 64" fill="none" xmlns="http://www.w3.org/2000/svg">
<path d="M47.7 62.75V60.65C48.7 60.65 49.4 60.4167 49.8 59.95C50.2 59.4833 50.4333 58.8333 50.5 58C50.6 57.1667 50.65 56.2 50.65 55.1L50.7 31.95C50.7 31.4167 50.7167 30.85 50.75 30.25C50.7833 29.6167 50.8333 29 50.9 28.4C50.3333 28.4333 49.7333 28.4667 49.1 28.5C48.4667 28.5 47.8833 28.5167 47.35 28.55V25.9C48.85 25.9 50.0167 25.8333 50.85 25.7C51.7167 25.5333 52.3667 25.35 52.8 25.15C53.2667 24.95 53.6167 24.7333 53.85 24.5H55.65C55.6833 24.8333 55.7167 25.2333 55.75 25.7C55.7833 26.1667 55.8167 26.6333 55.85 27.1C56.9167 26.1667 58.1 25.45 59.4 24.95C60.7 24.45 62 24.2 63.3 24.2C65.2333 24.2 67 24.7167 68.6 25.75C70.2333 26.75 71.5333 28.1833 72.5 30.05C73.5 31.9167 74 34.1333 74 36.7C74 39.4667 73.4333 41.9167 72.3 44.05C71.1667 46.1833 69.6333 47.85 67.7 49.05C65.8 50.2167 63.6833 50.8 61.35 50.8C60.2833 50.8 59.3 50.6667 58.4 50.4C57.5 50.1667 56.65 49.8333 55.85 49.4V56.55C55.85 57.15 55.8333 57.75 55.8 58.35C55.8 58.9833 55.7667 59.6167 55.7 60.25C56.2333 60.2167 56.7667 60.1833 57.3 60.15C57.8667 60.15 58.3833 60.1333 58.85 60.1V62.75H47.7ZM61 48.2C62.6 48.2 63.9167 47.7333 64.95 46.8C66.0167 45.8333 66.8 44.55 67.3 42.95C67.8333 41.3167 68.1 39.4833 68.1 37.45C68.1 35.75 67.8667 34.1333 67.4 32.6C66.9333 31.0333 66.1833 29.7667 65.15 28.8C64.15 27.8 62.8333 27.3167 61.2 27.35C60.1667 27.35 59.1833 27.6 58.25 28.1C57.3167 28.6 56.5333 29.2167 55.9 29.95C55.9 30.3833 55.9 30.85 55.9 31.35C55.9333 31.85 55.95 32.4833 55.95 33.25C55.95 33.9833 55.95 34.9333 55.95 36.1C55.95 37.2333 55.9333 38.6667 55.9 40.4C55.9 42.1 55.9 44.1667 55.9 46.6C56.5667 47.1 57.3333 47.5 58.2 47.8C59.1 48.1 60.0333 48.2333 61 48.2ZM90.0328 50.8C87.6995 50.8 85.5995 50.2667 83.7328 49.2C81.8995 48.1 80.4495 46.5667 79.3828 44.6C78.3161 42.6 77.7828 40.25 77.7828 37.55C77.7828 35.2167 78.2995 33.0333 79.3328 31C80.3995 28.9667 81.8828 27.3333 83.7828 26.1C85.6828 24.8333 87.8828 24.2 90.3828 24.2C91.7828 24.2 93.0995 24.4167 94.3328 24.85C95.5995 25.2833 96.7161 25.9667 97.6828 26.9C98.6828 27.8 99.4661 28.9833 100.033 30.45C100.599 31.8833 100.883 33.6333 100.883 35.7L83.6828 36C83.6828 38.2667 83.9328 40.2833 84.4328 42.05C84.9661 43.8167 85.8161 45.1833 86.9828 46.15C88.1495 47.1167 89.6661 47.6 91.5328 47.6C92.4328 47.6 93.3828 47.45 94.3828 47.15C95.4161 46.8167 96.3828 46.35 97.2828 45.75C98.2161 45.15 98.9995 44.4333 99.6328 43.6L101.183 44.95C100.183 46.45 99.0328 47.6333 97.7328 48.5C96.4328 49.3333 95.0995 49.9167 93.7328 50.25C92.3995 50.6167 91.1661 50.8 90.0328 50.8ZM83.8828 33.4H95.4328C95.4328 32.1333 95.2495 31 94.8828 30C94.5495 28.9667 94.0161 28.15 93.2828 27.55C92.5495 26.95 91.6161 26.65 90.4828 26.65C88.7161 26.65 87.2661 27.2167 86.1328 28.35C84.9995 29.45 84.2495 31.1333 83.8828 33.4ZM105.084 50V47.9C106.084 47.9 106.784 47.6667 107.184 47.2C107.584 46.7333 107.817 46.0833 107.884 45.25C107.984 44.4167 108.034 43.45 108.034 42.35L108.084 31.95C108.084 31.4167 108.084 30.85 108.084 30.25C108.117 29.6167 108.184 29 108.284 28.4C107.684 28.4333 107.067 28.4667 106.434 28.5C105.834 28.5 105.267 28.5167 104.734 28.55V25.9C106.234 25.9 107.4 25.8333 108.234 25.7C109.1 25.5333 109.75 25.35 110.184 25.15C110.65 24.95 111 24.7333 111.234 24.5H113.034C113.067 24.8 113.084 25.0833 113.084 25.35C113.117 25.6167 113.134 25.9 113.134 26.2C113.167 26.5 113.2 26.8833 113.234 27.35C113.967 26.75 114.767 26.2167 115.634 25.75C116.5 25.2833 117.4 24.9167 118.334 24.65C119.3 24.35 120.217 24.2 121.084 24.2C124.05 24.2 126.184 25.1 127.484 26.9C128.817 28.7 129.484 31.5167 129.484 35.35V43.8C129.484 44.4 129.467 45.0167 129.434 45.65C129.4 46.25 129.35 46.8667 129.284 47.5C129.817 47.4667 130.35 47.45 130.884 47.45C131.45 47.4167 131.967 47.3833 132.434 47.35V50H121.284V47.9C122.284 47.9 122.984 47.6667 123.384 47.2C123.784 46.7333 124.017 46.0833 124.084 45.25C124.184 44.4167 124.234 43.45 124.234 42.35V35.35C124.2 32.7167 123.767 30.7333 122.934 29.4C122.134 28.0667 120.834 27.4167 119.034 27.45C117.967 27.45 116.917 27.7167 115.884 28.25C114.85 28.7833 113.984 29.4333 113.284 30.2C113.284 30.5333 113.284 30.9 113.284 31.3C113.284 31.6667 113.284 32.05 113.284 32.45V43.8C113.284 44.4 113.267 45.0167 113.234 45.65C113.2 46.25 113.15 46.8667 113.084 47.5C113.617 47.4667 114.15 47.45 114.684 47.45C115.25 47.4167 115.767 47.3833 116.234 47.35V50H105.084ZM147.543 63.55C144.61 63.55 142.243 63.2167 140.443 62.55C138.676 61.9167 137.393 61.0833 136.593 60.05C135.826 59.05 135.443 57.9833 135.443 56.85C135.443 55.95 135.643 55.1167 136.043 54.35C136.476 53.5833 137.043 52.9 137.743 52.3C138.443 51.7333 139.226 51.2833 140.093 50.95C138.926 50.5833 138.043 50.0667 137.443 49.4C136.843 48.7 136.543 47.85 136.543 46.85C136.543 45.7833 136.96 44.7333 137.793 43.7C138.66 42.6667 139.893 41.9667 141.493 41.6C139.993 40.9333 138.793 39.9667 137.893 38.7C136.993 37.4333 136.526 35.9333 136.493 34.2C136.46 32.2 136.96 30.45 137.993 28.95C139.06 27.45 140.41 26.2833 142.043 25.45C143.71 24.6167 145.443 24.2 147.243 24.2C148.276 24.2 149.343 24.35 150.443 24.65C151.543 24.9167 152.543 25.35 153.443 25.95C153.81 24.9833 154.293 24.1 154.893 23.3C155.493 22.5 156.193 21.8667 156.993 21.4C157.826 20.9333 158.693 20.7 159.593 20.7C160.56 20.7 161.293 20.95 161.793 21.45C162.293 21.95 162.543 22.6167 162.543 23.45C162.543 23.7167 162.46 24.05 162.293 24.45C162.16 24.8167 161.91 25.1333 161.543 25.4C161.176 25.6667 160.676 25.8 160.043 25.8C159.51 25.8 159.026 25.6333 158.593 25.3C158.193 24.9333 157.943 24.5 157.843 24C157.143 24.1333 156.56 24.55 156.093 25.25C155.66 25.9167 155.376 26.6 155.243 27.3C156.11 28.0667 156.776 28.9833 157.243 30.05C157.743 31.0833 157.993 32.2 157.993 33.4C157.993 35.3 157.476 36.9833 156.443 38.45C155.443 39.9167 154.126 41.0667 152.493 41.9C150.86 42.7333 149.093 43.15 147.193 43.15C146.626 43.15 146.093 43.1167 145.593 43.05C145.093 42.95 144.543 42.9 143.943 42.9C142.876 42.9 141.993 43.15 141.293 43.65C140.626 44.15 140.376 44.75 140.543 45.45C140.71 46.1833 141.41 46.6667 142.643 46.9C143.876 47.1333 145.66 47.3 147.993 47.4C150.56 47.5 152.76 47.8167 154.593 48.35C156.46 48.85 157.893 49.6333 158.893 50.7C159.926 51.7667 160.443 53.2167 160.443 55.05C160.443 56.4167 160.06 57.6333 159.293 58.7C158.56 59.7667 157.56 60.65 156.293 61.35C155.06 62.0833 153.676 62.6333 152.143 63C150.61 63.3667 149.076 63.55 147.543 63.55ZM147.993 61.1C150.693 61.1 152.776 60.6 154.243 59.6C155.743 58.6 156.493 57.4667 156.493 56.2C156.493 55.1333 156.126 54.3 155.393 53.7C154.66 53.1333 153.626 52.7167 152.293 52.45C150.993 52.2167 149.46 52.0833 147.693 52.05C146.826 51.9833 145.943 51.9333 145.043 51.9C144.143 51.8667 143.31 51.7833 142.543 51.65C141.776 52.1833 141.176 52.8333 140.743 53.6C140.343 54.3667 140.126 55.1667 140.093 56C140.093 57.5333 140.81 58.7667 142.243 59.7C143.676 60.6333 145.593 61.1 147.993 61.1ZM147.343 40.8C148.476 40.8 149.41 40.5167 150.143 39.95C150.91 39.35 151.476 38.5667 151.843 37.6C152.243 36.6 152.443 35.5167 152.443 34.35C152.443 32.9833 152.243 31.7 151.843 30.5C151.443 29.3 150.86 28.3333 150.093 27.6C149.326 26.8667 148.343 26.5 147.143 26.5C145.51 26.5 144.243 27.15 143.343 28.45C142.443 29.75 141.993 31.3167 141.993 33.15C141.993 34.6167 142.193 35.9333 142.593 37.1C143.026 38.2333 143.643 39.1333 144.443 39.8C145.243 40.4667 146.21 40.8 147.343 40.8ZM174.129 50.8C172.262 50.8 170.712 50.45 169.479 49.75C168.279 49.05 167.379 47.9 166.779 46.3C166.179 44.6667 165.879 42.5167 165.879 39.85V32C165.879 31.4333 165.879 30.85 165.879 30.25C165.912 29.6167 165.979 29 166.079 28.4C165.512 28.4333 164.912 28.4667 164.279 28.5C163.645 28.5 163.079 28.5167 162.579 28.55V25.9H163.779C165.445 25.9 166.695 25.75 167.529 25.45C168.362 25.15 168.945 24.8333 169.279 24.5H171.179V39.75C171.179 42.3833 171.545 44.35 172.279 45.65C173.012 46.95 174.245 47.5833 175.979 47.55C177.112 47.55 178.195 47.2167 179.229 46.55C180.295 45.8833 181.162 45.1 181.829 44.2V32.35C181.829 31.6167 181.845 30.9333 181.879 30.3C181.912 29.6333 181.979 29 182.079 28.4C181.479 28.4333 180.862 28.4667 180.229 28.5C179.595 28.5 179.012 28.5167 178.479 28.55V25.9H179.929C181.395 25.9 182.545 25.75 183.379 25.45C184.212 25.15 184.812 24.8333 185.179 24.5H187.079L187.029 42.9C187.029 43.4333 187.012 44.1667 186.979 45.1C186.945 46 186.895 46.8 186.829 47.5C187.395 47.4667 187.979 47.4333 188.579 47.4C189.212 47.3667 189.795 47.35 190.329 47.35V50H182.379C182.312 49.4667 182.245 48.9667 182.179 48.5C182.145 48.0333 182.095 47.5833 182.029 47.15C180.995 48.1167 179.795 48.9667 178.429 49.7C177.062 50.4333 175.629 50.8 174.129 50.8Z" fill="white"/>
<g clip-path="url(#clip0_57_761)">
<path d="M37.6621 47.4053C36.0734 40.3276 32.7448 36.6595 30.881 35.0903C30.7809 34.9404 30.678 34.7931 30.573 34.6475C30.8754 33.6109 31.0401 32.5129 31.0401 31.3751C31.0401 25.0928 26.0854 20 19.9734 20C13.8614 20 8.90675 25.0927 8.90675 31.3751C8.90675 32.5129 9.07129 33.6109 9.37382 34.6475C9.24502 34.8261 9.11995 35.008 8.99849 35.1931C7.11475 36.8169 3.89289 40.478 2.33795 47.4055C2.26889 47.7129 2.37995 48.0328 2.62449 48.2315C2.86902 48.4303 3.20502 48.4736 3.49182 48.3431C4.36449 47.9457 5.50809 47.3388 6.57675 46.5109C7.14129 50.3577 9.01635 53.7151 11.6768 56H9.67848C8.57395 56 7.67849 56.8955 7.67849 58C7.67849 59.1045 8.57395 60 9.67848 60H30.2118C31.3164 60 32.2118 59.1045 32.2118 58C32.2118 56.8955 31.3164 56 30.2118 56H28.27C30.9388 53.7081 32.8174 50.3367 33.3756 46.4748C34.4577 47.3217 35.6228 47.9396 36.5082 48.3431C36.7949 48.4737 37.131 48.4303 37.3755 48.2315C37.6199 48.0327 37.731 47.7128 37.6621 47.4053ZM19.9734 54.5561C14.7573 54.5561 10.5286 49.8599 10.5286 44.0667C10.5286 41.0932 11.6428 37.3553 13.4325 34.4207C12.5069 33.6051 11.9222 32.4116 11.9222 31.0808C11.9222 28.6224 13.915 26.6296 16.3734 26.6296C17.8536 26.6296 19.1642 27.3527 19.9734 28.4641C20.7826 27.3527 22.0933 26.6296 23.5734 26.6296C26.0318 26.6296 28.0246 28.6224 28.0246 31.0808C28.0246 32.4115 27.44 33.6051 26.5144 34.4207C28.3041 37.3553 29.4182 41.0932 29.4182 44.0667C29.4182 49.8599 25.1896 54.5561 19.9734 54.5561Z" fill="white"/>
<path d="M22.5675 32.9746L20.0859 32.2125C20.0127 32.1899 19.9343 32.1899 19.8611 32.2125L17.3795 32.9746C17.2607 33.011 17.1669 33.103 17.1281 33.221C17.0893 33.339 17.1103 33.4683 17.1843 33.5682L19.6659 36.9183C19.7381 37.0157 19.8521 37.0733 19.9735 37.0733C20.0947 37.0733 20.2088 37.0157 20.2811 36.9183L22.7627 33.5682C22.8367 33.4683 22.8576 33.3389 22.8188 33.221C22.78 33.1029 22.6861 33.011 22.5675 32.9746Z" fill="white"/>
<path d="M17.4723 32.1955C18.0539 32.1955 18.5255 31.724 18.5255 31.1423C18.5255 30.5606 18.0539 30.0891 17.4723 30.0891C16.8906 30.0891 16.4191 30.5606 16.4191 31.1423C16.4191 31.724 16.8906 32.1955 17.4723 32.1955Z" fill="white"/>
<path d="M22.4746 32.1955C23.0563 32.1955 23.5278 31.724 23.5278 31.1423C23.5278 30.5606 23.0563 30.0891 22.4746 30.0891C21.8929 30.0891 21.4214 30.5606 21.4214 31.1423C21.4214 31.724 21.8929 32.1955 22.4746 32.1955Z" fill="white"/>
</g>
<defs>
<clipPath id="clip0_57_761">
<rect width="40" height="40" fill="white" transform="translate(0 20)"/>
</clipPath>
</defs>
</svg>
