<svg width="192" height="64" viewBox="0 0 192 64" fill="none" xmlns="http://www.w3.org/2000/svg">
<path d="M47.7 50.75V48.65C48.7 48.65 49.4 48.4167 49.8 47.95C50.2 47.4833 50.4333 46.8333 50.5 46C50.6 45.1667 50.65 44.2 50.65 43.1L50.7 19.95C50.7 19.4167 50.7167 18.85 50.75 18.25C50.7833 17.6167 50.8333 17 50.9 16.4C50.3333 16.4333 49.7333 16.4667 49.1 16.5C48.4667 16.5 47.8833 16.5167 47.35 16.55V13.9C48.85 13.9 50.0167 13.8333 50.85 13.7C51.7167 13.5333 52.3667 13.35 52.8 13.15C53.2667 12.95 53.6167 12.7333 53.85 12.5H55.65C55.6833 12.8333 55.7167 13.2333 55.75 13.7C55.7833 14.1667 55.8167 14.6333 55.85 15.1C56.9167 14.1667 58.1 13.45 59.4 12.95C60.7 12.45 62 12.2 63.3 12.2C65.2333 12.2 67 12.7167 68.6 13.75C70.2333 14.75 71.5333 16.1833 72.5 18.05C73.5 19.9167 74 22.1333 74 24.7C74 27.4667 73.4333 29.9167 72.3 32.05C71.1667 34.1833 69.6333 35.85 67.7 37.05C65.8 38.2167 63.6833 38.8 61.35 38.8C60.2833 38.8 59.3 38.6667 58.4 38.4C57.5 38.1667 56.65 37.8333 55.85 37.4V44.55C55.85 45.15 55.8333 45.75 55.8 46.35C55.8 46.9833 55.7667 47.6167 55.7 48.25C56.2333 48.2167 56.7667 48.1833 57.3 48.15C57.8667 48.15 58.3833 48.1333 58.85 48.1V50.75H47.7ZM61 36.2C62.6 36.2 63.9167 35.7333 64.95 34.8C66.0167 33.8333 66.8 32.55 67.3 30.95C67.8333 29.3167 68.1 27.4833 68.1 25.45C68.1 23.75 67.8667 22.1333 67.4 20.6C66.9333 19.0333 66.1833 17.7667 65.15 16.8C64.15 15.8 62.8333 15.3167 61.2 15.35C60.1667 15.35 59.1833 15.6 58.25 16.1C57.3167 16.6 56.5333 17.2167 55.9 17.95C55.9 18.3833 55.9 18.85 55.9 19.35C55.9333 19.85 55.95 20.4833 55.95 21.25C55.95 21.9833 55.95 22.9333 55.95 24.1C55.95 25.2333 55.9333 26.6667 55.9 28.4C55.9 30.1 55.9 32.1667 55.9 34.6C56.5667 35.1 57.3333 35.5 58.2 35.8C59.1 36.1 60.0333 36.2333 61 36.2ZM90.0328 38.8C87.6995 38.8 85.5995 38.2667 83.7328 37.2C81.8995 36.1 80.4495 34.5667 79.3828 32.6C78.3161 30.6 77.7828 28.25 77.7828 25.55C77.7828 23.2167 78.2995 21.0333 79.3328 19C80.3995 16.9667 81.8828 15.3333 83.7828 14.1C85.6828 12.8333 87.8828 12.2 90.3828 12.2C91.7828 12.2 93.0995 12.4167 94.3328 12.85C95.5995 13.2833 96.7161 13.9667 97.6828 14.9C98.6828 15.8 99.4661 16.9833 100.033 18.45C100.599 19.8833 100.883 21.6333 100.883 23.7L83.6828 24C83.6828 26.2667 83.9328 28.2833 84.4328 30.05C84.9661 31.8167 85.8161 33.1833 86.9828 34.15C88.1495 35.1167 89.6661 35.6 91.5328 35.6C92.4328 35.6 93.3828 35.45 94.3828 35.15C95.4161 34.8167 96.3828 34.35 97.2828 33.75C98.2161 33.15 98.9995 32.4333 99.6328 31.6L101.183 32.95C100.183 34.45 99.0328 35.6333 97.7328 36.5C96.4328 37.3333 95.0995 37.9167 93.7328 38.25C92.3995 38.6167 91.1661 38.8 90.0328 38.8ZM83.8828 21.4H95.4328C95.4328 20.1333 95.2495 19 94.8828 18C94.5495 16.9667 94.0161 16.15 93.2828 15.55C92.5495 14.95 91.6161 14.65 90.4828 14.65C88.7161 14.65 87.2661 15.2167 86.1328 16.35C84.9995 17.45 84.2495 19.1333 83.8828 21.4ZM105.084 38V35.9C106.084 35.9 106.784 35.6667 107.184 35.2C107.584 34.7333 107.817 34.0833 107.884 33.25C107.984 32.4167 108.034 31.45 108.034 30.35L108.084 19.95C108.084 19.4167 108.084 18.85 108.084 18.25C108.117 17.6167 108.184 17 108.284 16.4C107.684 16.4333 107.067 16.4667 106.434 16.5C105.834 16.5 105.267 16.5167 104.734 16.55V13.9C106.234 13.9 107.4 13.8333 108.234 13.7C109.1 13.5333 109.75 13.35 110.184 13.15C110.65 12.95 111 12.7333 111.234 12.5H113.034C113.067 12.8 113.084 13.0833 113.084 13.35C113.117 13.6167 113.134 13.9 113.134 14.2C113.167 14.5 113.2 14.8833 113.234 15.35C113.967 14.75 114.767 14.2167 115.634 13.75C116.5 13.2833 117.4 12.9167 118.334 12.65C119.3 12.35 120.217 12.2 121.084 12.2C124.05 12.2 126.184 13.1 127.484 14.9C128.817 16.7 129.484 19.5167 129.484 23.35V31.8C129.484 32.4 129.467 33.0167 129.434 33.65C129.4 34.25 129.35 34.8667 129.284 35.5C129.817 35.4667 130.35 35.45 130.884 35.45C131.45 35.4167 131.967 35.3833 132.434 35.35V38H121.284V35.9C122.284 35.9 122.984 35.6667 123.384 35.2C123.784 34.7333 124.017 34.0833 124.084 33.25C124.184 32.4167 124.234 31.45 124.234 30.35V23.35C124.2 20.7167 123.767 18.7333 122.934 17.4C122.134 16.0667 120.834 15.4167 119.034 15.45C117.967 15.45 116.917 15.7167 115.884 16.25C114.85 16.7833 113.984 17.4333 113.284 18.2C113.284 18.5333 113.284 18.9 113.284 19.3C113.284 19.6667 113.284 20.05 113.284 20.45V31.8C113.284 32.4 113.267 33.0167 113.234 33.65C113.2 34.25 113.15 34.8667 113.084 35.5C113.617 35.4667 114.15 35.45 114.684 35.45C115.25 35.4167 115.767 35.3833 116.234 35.35V38H105.084ZM147.543 51.55C144.61 51.55 142.243 51.2167 140.443 50.55C138.676 49.9167 137.393 49.0833 136.593 48.05C135.826 47.05 135.443 45.9833 135.443 44.85C135.443 43.95 135.643 43.1167 136.043 42.35C136.476 41.5833 137.043 40.9 137.743 40.3C138.443 39.7333 139.226 39.2833 140.093 38.95C138.926 38.5833 138.043 38.0667 137.443 37.4C136.843 36.7 136.543 35.85 136.543 34.85C136.543 33.7833 136.96 32.7333 137.793 31.7C138.66 30.6667 139.893 29.9667 141.493 29.6C139.993 28.9333 138.793 27.9667 137.893 26.7C136.993 25.4333 136.526 23.9333 136.493 22.2C136.46 20.2 136.96 18.45 137.993 16.95C139.06 15.45 140.41 14.2833 142.043 13.45C143.71 12.6167 145.443 12.2 147.243 12.2C148.276 12.2 149.343 12.35 150.443 12.65C151.543 12.9167 152.543 13.35 153.443 13.95C153.81 12.9833 154.293 12.1 154.893 11.3C155.493 10.5 156.193 9.8667 156.993 9.4C157.826 8.9333 158.693 8.7 159.593 8.7C160.56 8.7 161.293 8.95 161.793 9.45C162.293 9.95 162.543 10.6167 162.543 11.45C162.543 11.7167 162.46 12.05 162.293 12.45C162.16 12.8167 161.91 13.1333 161.543 13.4C161.176 13.6667 160.676 13.8 160.043 13.8C159.51 13.8 159.026 13.6333 158.593 13.3C158.193 12.9333 157.943 12.5 157.843 12C157.143 12.1333 156.56 12.55 156.093 13.25C155.66 13.9167 155.376 14.6 155.243 15.3C156.11 16.0667 156.776 16.9833 157.243 18.05C157.743 19.0833 157.993 20.2 157.993 21.4C157.993 23.3 157.476 24.9833 156.443 26.45C155.443 27.9167 154.126 29.0667 152.493 29.9C150.86 30.7333 149.093 31.15 147.193 31.15C146.626 31.15 146.093 31.1167 145.593 31.05C145.093 30.95 144.543 30.9 143.943 30.9C142.876 30.9 141.993 31.15 141.293 31.65C140.626 32.15 140.376 32.75 140.543 33.45C140.71 34.1833 141.41 34.6667 142.643 34.9C143.876 35.1333 145.66 35.3 147.993 35.4C150.56 35.5 152.76 35.8167 154.593 36.35C156.46 36.85 157.893 37.6333 158.893 38.7C159.926 39.7667 160.443 41.2167 160.443 43.05C160.443 44.4167 160.06 45.6333 159.293 46.7C158.56 47.7667 157.56 48.65 156.293 49.35C155.06 50.0833 153.676 50.6333 152.143 51C150.61 51.3667 149.076 51.55 147.543 51.55ZM147.993 49.1C150.693 49.1 152.776 48.6 154.243 47.6C155.743 46.6 156.493 45.4667 156.493 44.2C156.493 43.1333 156.126 42.3 155.393 41.7C154.66 41.1333 153.626 40.7167 152.293 40.45C150.993 40.2167 149.46 40.0833 147.693 40.05C146.826 39.9833 145.943 39.9333 145.043 39.9C144.143 39.8667 143.31 39.7833 142.543 39.65C141.776 40.1833 141.176 40.8333 140.743 41.6C140.343 42.3667 140.126 43.1667 140.093 44C140.093 45.5333 140.81 46.7667 142.243 47.7C143.676 48.6333 145.593 49.1 147.993 49.1ZM147.343 28.8C148.476 28.8 149.41 28.5167 150.143 27.95C150.91 27.35 151.476 26.5667 151.843 25.6C152.243 24.6 152.443 23.5167 152.443 22.35C152.443 20.9833 152.243 19.7 151.843 18.5C151.443 17.3 150.86 16.3333 150.093 15.6C149.326 14.8667 148.343 14.5 147.143 14.5C145.51 14.5 144.243 15.15 143.343 16.45C142.443 17.75 141.993 19.3167 141.993 21.15C141.993 22.6167 142.193 23.9333 142.593 25.1C143.026 26.2333 143.643 27.1333 144.443 27.8C145.243 28.4667 146.21 28.8 147.343 28.8ZM174.129 38.8C172.262 38.8 170.712 38.45 169.479 37.75C168.279 37.05 167.379 35.9 166.779 34.3C166.179 32.6667 165.879 30.5167 165.879 27.85V20C165.879 19.4333 165.879 18.85 165.879 18.25C165.912 17.6167 165.979 17 166.079 16.4C165.512 16.4333 164.912 16.4667 164.279 16.5C163.645 16.5 163.079 16.5167 162.579 16.55V13.9H163.779C165.445 13.9 166.695 13.75 167.529 13.45C168.362 13.15 168.945 12.8333 169.279 12.5H171.179V27.75C171.179 30.3833 171.545 32.35 172.279 33.65C173.012 34.95 174.245 35.5833 175.979 35.55C177.112 35.55 178.195 35.2167 179.229 34.55C180.295 33.8833 181.162 33.1 181.829 32.2V20.35C181.829 19.6167 181.845 18.9333 181.879 18.3C181.912 17.6333 181.979 17 182.079 16.4C181.479 16.4333 180.862 16.4667 180.229 16.5C179.595 16.5 179.012 16.5167 178.479 16.55V13.9H179.929C181.395 13.9 182.545 13.75 183.379 13.45C184.212 13.15 184.812 12.8333 185.179 12.5H187.079L187.029 30.9C187.029 31.4333 187.012 32.1667 186.979 33.1C186.945 34 186.895 34.8 186.829 35.5C187.395 35.4667 187.979 35.4333 188.579 35.4C189.212 35.3667 189.795 35.35 190.329 35.35V38H182.379C182.312 37.4667 182.245 36.9667 182.179 36.5C182.145 36.0333 182.095 35.5833 182.029 35.15C180.995 36.1167 179.795 36.9667 178.429 37.7C177.062 38.4333 175.629 38.8 174.129 38.8Z" fill="#060530"/>
<mask id="mask0_1_3" style="mask-type:luminance" maskUnits="userSpaceOnUse" x="0" y="8" width="40" height="40">
<path d="M40 8H0V48H40V8Z" fill="white"/>
</mask>
<g mask="url(#mask0_1_3)">
<path d="M37.6621 35.4053C36.0735 28.3276 32.7448 24.6595 30.8811 23.0903C30.7809 22.9404 30.678 22.7931 30.5731 22.6475C30.8755 21.6109 31.0401 20.5129 31.0401 19.3751C31.0401 13.0928 26.0855 8 19.9735 8C13.8615 8 8.90681 13.0927 8.90681 19.3751C8.90681 20.5129 9.07135 21.6109 9.37388 22.6475C9.24508 22.8261 9.12001 23.008 8.99855 23.1931C7.11481 24.8169 3.89295 28.478 2.33801 35.4055C2.26895 35.7129 2.38001 36.0328 2.62455 36.2315C2.86908 36.4303 3.20508 36.4736 3.49188 36.3431C4.36455 35.9457 5.50815 35.3388 6.57681 34.5109C7.14135 38.3577 9.01641 41.7151 11.6768 44H9.67855C8.57401 44 7.67855 44.8955 7.67855 46C7.67855 47.1045 8.57401 48 9.67855 48H30.2119C31.3164 48 32.2119 47.1045 32.2119 46C32.2119 44.8955 31.3164 44 30.2119 44H28.27C30.9388 41.7081 32.8175 38.3367 33.3756 34.4748C34.4577 35.3217 35.6228 35.9396 36.5083 36.3431C36.7949 36.4737 37.1311 36.4303 37.3756 36.2315C37.62 36.0327 37.7311 35.7128 37.6621 35.4053ZM19.9735 42.5561C14.7573 42.5561 10.5287 37.8599 10.5287 32.0667C10.5287 29.0932 11.6428 25.3553 13.4325 22.4207C12.5069 21.6051 11.9223 20.4116 11.9223 19.0808C11.9223 16.6224 13.9151 14.6296 16.3735 14.6296C17.8536 14.6296 19.1643 15.3527 19.9735 16.4641C20.7827 15.3527 22.0933 14.6296 23.5735 14.6296C26.0319 14.6296 28.0247 16.6224 28.0247 19.0808C28.0247 20.4115 27.44 21.6051 26.5144 22.4207C28.3041 25.3553 29.4183 29.0932 29.4183 32.0667C29.4183 37.8599 25.1896 42.5561 19.9735 42.5561Z" fill="#C83536"/>
<path d="M22.5675 20.9746L20.0859 20.2125C20.0127 20.1899 19.9343 20.1899 19.8611 20.2125L17.3795 20.9746C17.2607 21.011 17.1669 21.103 17.1281 21.221C17.0893 21.339 17.1103 21.4683 17.1843 21.5682L19.6659 24.9183C19.7381 25.0157 19.8521 25.0733 19.9735 25.0733C20.0947 25.0733 20.2088 25.0157 20.2811 24.9183L22.7627 21.5682C22.8367 21.4683 22.8576 21.3389 22.8188 21.221C22.78 21.1029 22.6861 21.011 22.5675 20.9746Z" fill="#C83536"/>
<path d="M17.4723 20.1955C18.0539 20.1955 18.5255 19.724 18.5255 19.1423C18.5255 18.5606 18.0539 18.0891 17.4723 18.0891C16.8906 18.0891 16.4191 18.5606 16.4191 19.1423C16.4191 19.724 16.8906 20.1955 17.4723 20.1955Z" fill="#C83536"/>
<path d="M22.4747 20.1955C23.0564 20.1955 23.5279 19.724 23.5279 19.1423C23.5279 18.5606 23.0564 18.0891 22.4747 18.0891C21.893 18.0891 21.4215 18.5606 21.4215 19.1423C21.4215 19.724 21.893 20.1955 22.4747 20.1955Z" fill="#C83536"/>
</g>
</svg>
